<?xml version="1.0" standalone="no"?>
<!DOCTYPE svg PUBLIC "-//W3C//DTD SVG 20010904//EN"
 "http://www.w3.org/TR/2001/REC-SVG-20010904/DTD/svg10.dtd">
<svg version="1.0" xmlns="http://www.w3.org/2000/svg"
 width="512.000000pt" height="512.000000pt" viewBox="0 0 512.000000 512.000000"
 preserveAspectRatio="xMidYMid meet">
<metadata>
Created by potrace 1.11, written by Peter Selinger 2001-2013
</metadata>
<g transform="translate(0.000000,512.000000) scale(0.100000,-0.100000)"
fill="#000000" stroke="none">
<path d="M964 5024 c-45 -8 -115 -25 -155 -39 -41 -15 -84 -29 -96 -32 -13 -3
-23 -9 -23 -13 0 -4 -11 -10 -23 -14 -47 -11 -194 -119 -267 -195 -84 -87
-110 -118 -110 -129 0 -4 -10 -18 -23 -32 -27 -31 -113 -213 -122 -260 0 -3
-6 -21 -12 -40 -13 -40 -23 -94 -29 -160 -6 -69 -5 -2977 1 -3043 14 -155 75
-320 171 -467 39 -61 60 -85 124 -148 132 -131 273 -213 461 -270 13 -4 764
-7 1669 -7 l1645 0 70 26 c104 39 205 89 205 101 0 6 3 9 6 5 3 -3 11 -2 18 4
6 5 39 30 73 55 35 25 71 56 82 70 10 13 24 24 30 24 6 0 11 3 11 8 0 6 10 20
71 90 10 12 19 27 19 32 0 6 4 10 9 10 5 0 11 8 14 18 6 19 38 74 48 82 23 19
93 238 107 335 9 64 8 3041 -1 3117 -4 31 -11 68 -17 82 -5 14 -7 26 -5 26 2
0 0 12 -6 28 -6 15 -13 36 -15 47 -3 18 -12 38 -58 135 -49 105 -180 267 -278
345 -45 37 -139 95 -152 95 -9 0 -16 4 -16 8 0 9 -88 50 -135 63 -16 4 -55 16
-85 25 -63 19 -140 20 -2020 27 -877 3 -1122 1 -1186 -9z m1246 -2145 c0 -6
-4 -7 -10 -4 -5 3 -10 11 -10 16 0 6 5 7 10 4 6 -3 10 -11 10 -16z m205 -209
c10 -11 16 -20 13 -20 -3 0 -13 9 -23 20 -10 11 -16 20 -13 20 3 0 13 -9 23
-20z m39 -36 c3 -8 2 -12 -4 -9 -6 3 -10 10 -10 16 0 14 7 11 14 -7z m37 -41
c13 -16 12 -17 -3 -4 -17 13 -22 21 -14 21 2 0 10 -8 17 -17z m-1832 -1856
c-2 -1 -13 -9 -24 -17 -19 -14 -19 -14 -6 3 7 9 18 17 24 17 6 0 8 -1 6 -3z
m-164 -166 c-3 -6 -11 -11 -16 -11 -5 0 -4 6 3 14 14 16 24 13 13 -3z"/>
</g>
</svg>
